<svg version="1" xmlns="http://www.w3.org/2000/svg" width="912" height="912" viewBox="0 0 684.000000 684.000000"><path d="M429.7.6c-.1.1-4.5.4-9.7.8-40.6 2.6-87.3 25.1-131 63.2-13.7 11.9-30.4 28.7-39.4 39.4l-2.8 3.4-33.7.2c-18.5.1-34.9.4-36.6.7-1.6.3-5.7.8-9 1.2-3.3.3-7.1.7-8.5 1-1.4.2-4.2.6-6.4 1-43.5 6.4-85.3 24.8-110.3 48.4-19 17.9-31.6 39.4-37.3 63.5C.7 241.2.4 263.2 4.2 282c8.5 42.8 34.6 87.4 75.7 129.6 8.6 8.7 26.7 25.7 28.1 26.2.4.2.6 5.8.2 12.5-.9 20.7-.3 51.6 1.2 61.8.3 1.3.7 5.1 1.1 8.4 3.7 35.2 17.1 75.6 33.2 100.2 5 7.6 4.4 6.8 10.8 14.6 18 21.8 38.6 35.5 64.5 43 4.7 1.4 10.8 2.8 13.5 3.2 2.8.4 6.1.8 7.5 1.1 4.1.6 23.1.5 29-.1 4.7-.5 8.9-1.3 22.5-3.9 11.8-2.3 45.6-16.7 58.3-24.9 33.4-21.4 55-39.7 81.4-68.7l7.7-8.5 32.3-.1c17.8-.1 34.6-.4 37.3-.7 2.8-.4 7.5-.9 10.5-1.2 3-.3 6.2-.8 7-1 .8-.2 3.8-.6 6.5-1 2.8-.3 9.3-1.5 14.5-2.6 75.3-16 123.1-56.9 134.5-114.9 2.2-11 2.6-31.9.8-44.5-6.3-46-34.3-95.3-80.4-141.4-5.2-5.3-13.2-12.9-17.6-16.9l-8.1-7.3.5-6.2c1.3-15 .6-55-1.3-70.2-.6-5.1-2.8-20.1-3.9-26.5-3.3-18.8-11.4-43.1-20.6-61.5-19.3-39-48.7-64.9-84.7-74.9-6.1-1.7-7.2-1.9-13.7-3.2-3-.5-22.4-2.1-22.8-1.8zm25.8 35.3c37.5 10.2 65.4 42.3 79.5 91.9 1.7 5.9 3.3 11.8 3.5 13.2.3 1.4.7 3.6 1 5 .3 1.4.7 3.4.9 4.5 1.2 6.2 3.4 23.8 4.2 33.7.9 11.3 1.1 34.9.4 35.3-.6.4-10.4-5.8-12-7.5-.9-.9-22.1-14.5-31-19.7-14.9-8.9-23.9-13.8-39.5-21.6-12.1-6-26.3-12.7-27-12.7-.2 0-3.2-1.3-6.7-2.9-34.5-15.7-88.9-32.3-131.7-40.2l-12.5-2.2 11.5-11c27.8-26.8 58.2-47.6 84.4-58 11.6-4.6 24.8-8.4 32.2-9.2 3.2-.4 6-.9 6.2-1.1.3-.2 6.8-.2 14.5 0 10.3.3 16.3 1 22.1 2.5zM220.4 140.2c-.5.7-4.9 7.4-10 14.8-38.9 57.5-69 125.5-86.9 196-1.5 5.8-2.8 11.2-3 12-2.8 13.1-5.4 26.6-6 30.7-.4 2.9-1 5.3-1.4 5.3-.9 0-13.6-13.1-23.6-24.4-28.2-31.6-47.9-68.1-54-100.1-1.8-9-2.4-27.4-1.1-34.7 4.9-29.2 20.6-52.5 46.9-69.6 20.4-13.2 52.8-24.2 81.2-27.7 2.8-.4 5.7-.8 6.5-1 .8-.2 6-.7 11.5-1 5.5-.4 10.1-.8 10.3-.9.1-.2 7-.4 15.3-.5 12.2-.2 14.9 0 14.3 1.1zM269 143c7.4 1.1 13.4 2 16 2.5 1 .2 4 .7 6.7 1.1 2.6.5 5 .9 5.3.9 4.6 1 12 2.6 13.5 2.9 6.4 1.2 22 5.3 35.8 9.2 53.6 15.3 109.4 40.7 157.7 71.7 7 4.5 26.2 17.7 27 18.7.3.3 3.1 2.5 6.3 4.9 5 3.8 5.7 4.8 5.3 7-.3 1.4-1 6.4-1.6 11.1-.9 6.9-2.9 17.8-6.5 36.3-1.1 5.1-8.9 35.1-10.6 40.7-12.6 39.7-23.2 66.3-39.1 98.3-6.1 12-14.9 28.3-17.8 32.7-.6.8-1.4 2.4-1.9 3.5-2.2 4.7-19.4 30.6-29 43.5l-10.3 14.1-5.2-.6c-4.8-.5-11.3-1.4-14.6-2-.8-.1-3.5-.6-6-1-5.8-.9-7.4-1.2-13.5-2.5-6.6-1.4-9.4-1.9-13-2.6-11.7-2.1-49.9-13.2-69.6-20.3-28.2-10-64.6-26.4-87.9-39.6-4.1-2.3-9.1-5.1-11-6.2-15.2-8.7-35.2-21.8-51.7-34.1l-10.5-7.7.6-6c1-10.3 1.6-14.7 3.3-23.5 2.1-11.5 1.9-10.5 4.3-21.6 1.2-5.5 2.3-10.7 2.5-11.7 3.1-15 16.6-56.9 25.5-79.2 8.7-21.7 23.4-53 33-70 16-28.4 45.5-71.5 49-71.5.8 0 4.4.5 8 1zm333.3 174.3c9.3 11.2 23.4 31.7 29.1 42.1 7.1 13 15.3 34.4 17.5 45.6.6 3 1.3 6.8 1.7 8.5.3 1.6.7 7.9.8 13.9 1.1 47.1-27.1 82.9-80.4 102.4-9.1 3.3-24.9 7.8-31.5 8.8-2.2.3-4.3.8-4.7 1-.3.2-2.8.7-5.5 1-2.6.3-5.5.7-6.3.9-.8.2-4 .7-7 1-3 .3-7.1.8-9 1-1.9.3-12.5.8-23.5 1.1l-20 .7 1.8-2.4C505 487.1 536.3 422 556 354c3.2-11 7.8-28.7 9.5-36.9 2.6-12.2 3.4-16.1 3.8-18.6 1.1-6.7 1.9-11.1 2.3-12.5.7-1.9 17.7 15.4 30.7 31.3zm-456 150.5c39.8 29.2 99.9 59.6 156.1 78.8 19.8 6.8 52.5 15.9 68.1 19 1.1.2 3.1.6 4.5.9 3.7.8 7.2 1.5 10.5 2 1.7.3 5.4 1 8.4 1.5 3 .6 5.7 1 6 1 1.1 0-13.6 14.4-23.4 22.8-5.5 4.8-10.2 8.9-10.5 9.2-.3.3-4.9 3.9-10.3 7.9-25.1 18.7-51.5 31.6-76.2 37.3-11.4 2.6-32.8 3.2-43.2 1.2-36.2-6.9-62.1-31.2-80.1-74.9-5.1-12.5-12.1-41.1-13.7-56.5-.4-3.6-.9-7.3-1-8.2-1-4.9-2.1-36.7-1.6-44.1.1-2.3.4-2.2 6.4 2.1z"/><path d="M255.9 278.4c-.2.2-3.7.6-7.8 1-21.5 1.8-40.5 12.5-49.5 27.9-5.8 9.8-7.8 18-8 31.7-.1 13.5.3 16.9 2.9 24.5 6.1 17.8 22.4 31.5 44 37.1 11.6 3 36.7 2.6 51.5-.9l5.5-1.3-.2-6.4c-.5-19.9-.5-19.7-5.4-17.6-11.4 4.7-31.5 5.7-41.4 2.2-14.6-5.3-23.4-17.6-24-33.4-.7-18.5 9.2-33.7 25.4-38.8 9.6-3.1 27.5-1 38.6 4.5 2.2 1 4.1 1.8 4.3 1.6.5-.4 2.1-16 2.6-23.9.1-1.4-.8-2.2-2.9-2.8-9.7-2.7-20-4.4-27.2-4.7-3.7-.1-7-.4-7.4-.6-.3-.3-.8-.3-1-.1zM440 279.6c-14.2 2-23.4 5.9-30.4 13.1-4 4.1-7.6 10.7-8.2 15-.5 3.6-.5 13.4-.1 15.3 2 8.3 4.7 13.2 9.7 17.4 4.8 4 11.1 6.9 24 11.1 17.4 5.6 21.7 8.6 22.4 15.3.5 5.3-3.2 9.5-9.8 11.3-8.5 2.3-29-.3-38.6-5-2.2-1.1-4-1.6-4.1-1.3 0 .4-.2 1.6-.4 2.7-.7 3.2-1.8 15.7-1.9 19.9-.1 3.8.1 4 3.4 4.8 12.7 2.8 14 3 30 3.3 21.8.5 35.4-3.3 44.7-12.5 9.9-9.8 13.1-28.1 7.1-41.1-5.2-11.3-11.3-15.2-36.5-22.8-15.1-4.6-19.5-9.2-16.2-16.5 2.1-4.5 7.7-6.3 19.7-6.5 8.6-.2 12.3.3 19 2.2 5.2 1.5 8.2 2 8.3 1.3 0-.6.2-1.9.4-2.8.2-.9.6-5.9 1-11.2l.6-9.5-4.3-1.1c-7.4-2-8.1-2.1-17.8-2.6-5.2-.3-10.4-.6-11.5-.7-1.1-.2-5.8.2-10.5.9zM309 280.8l-7.6.3.1 11.7.1 11.7 11.9.2c6.6.1 13.2.2 14.8.2l2.7.1v96h16c15.9 0 16 0 16.1-2.3 0-1.2 0-22.6.1-47.5 0-28.2.4-45.5 1-45.8.6-.4 7.2-.6 14.8-.6h13.8l.1-11.9c0-11.6 0-11.9-2.2-12-6.7-.3-75.4-.4-81.7-.1z"/></svg>