<?xml version="1.0" encoding="UTF-8"?>
<svg width="3283px" height="3283px" viewBox="0 0 3283 3283" version="1.1" xmlns="http://www.w3.org/2000/svg" xmlns:xlink="http://www.w3.org/1999/xlink">
    <!-- Generator: Sketch 43.2 (39069) - http://www.bohemiancoding.com/sketch -->
    <title>Shape</title>
    <desc>Created with Sketch.</desc>
    <defs></defs>
    <g id="Page-1" stroke="none" stroke-width="1" fill="none" fill-rule="evenodd">
        <g id="cts" transform="translate(-4.000000, 0.000000)" fill-rule="nonzero" fill="#0072AD">
            <path d="M1415.56303,1911.23382 C1371.68303,1922.01136 1322.89539,1934.42478 1244.27706,1934.42478 C1090.31215,1934.42478 912.290219,1856.62439 912.290219,1638.13855 C912.290219,1437.02189 1052.97566,1336.89658 1243.31478,1336.89658 C1302.06202,1336.89658 1359.17338,1350.12794 1414.60075,1366.67917 L1402.18732,1491.77566 C1352.53364,1464.44689 1304.51583,1451.21553 1251.59039,1451.21553 C1142.37154,1451.21553 1071.16276,1530.6518 1071.16276,1638.23478 C1071.16276,1751.59145 1151.41697,1820.29829 1264.00382,1820.29829 C1314.47544,1820.29829 1365.81311,1807.06693 1408.00912,1790.5157 L1415.56303,1911.23382 Z M1590.60189,1461.03079 L1448.23246,1461.03079 L1448.23246,1346.85618 L1886.84,1346.85618 L1886.84,1461.0789 L1744.51868,1461.0789 L1744.51868,1924.5614 L1590.55377,1924.5614 L1590.60189,1461.03079 Z M1945.29855,1782.14386 C1994.3228,1807.60331 2048.83592,1820.66994 2104.07487,1820.20206 C2152.91061,1820.20206 2199.24443,1810.29057 2199.24443,1763.90864 C2199.24443,1656.32566 1926.14917,1724.16645 1926.14917,1514.00434 C1926.14917,1374.95478 2061.87886,1336.89658 2177.73746,1336.89658 C2233.16482,1336.89658 2287.82237,1345.17219 2326.89096,1358.40355 L2316.97947,1477.58202 C2276.59613,1459.72204 2232.86192,1450.6996 2188.70746,1451.1193 C2149.83132,1451.1193 2085.26228,1454.43917 2085.26228,1504.91079 C2085.26228,1598.44447 2358.35754,1535.51132 2358.35754,1744.08566 C2358.35754,1893.86465 2232.58746,1934.42478 2104.31544,1934.42478 C2050.52395,1934.42478 1983.5011,1926.14917 1932.16342,1909.59794 L1945.29855,1782.14386 Z M1220.46061,3282.19513 C1139.76499,3282.56885 1059.79647,3266.93492 985.182982,3236.19811 C733.065439,3131.74254 570.391886,2863.45868 527.137368,2480.80776 C485.711184,2114.27504 558.459605,1681.68175 732.00693,1262.70474 C905.554254,843.727719 1159.98127,486.240439 1448.23246,256.351579 C1749.715,16.2625439 2054.4693,-58.4104386 2306.58684,45.9970175 C2558.70439,150.404474 2721.37794,418.736447 2764.63246,801.387368 C2806.05864,1167.92009 2733.31022,1600.51338 2559.76289,2019.49039 L2559.76289,2019.49039 C2386.21557,2438.4193 2131.54798,2795.76224 1843.2968,3025.6511 C1631.06579,3195.10873 1416.71776,3282.19513 1220.46061,3282.19513 Z M2071.21298,153.146974 C1909.88662,153.146974 1728.30425,228.974693 1543.78693,376.011184 C1275.02193,590.022412 1037.09803,925.665921 873.317851,1321.06706 C709.537675,1716.4682 640.542149,2122.21386 679.129605,2463.4386 C715.888728,2788.4489 845.363596,3012.66031 1043.73776,3094.83908 C1242.11193,3177.01785 1492.20868,3109.995 1748.03101,2906.18395 C2016.60355,2692.17272 2254.71991,2356.52921 2418.50009,1961.12807 L2489.17961,1990.3814 L2418.50009,1961.12807 C2582.28026,1565.67882 2651.08333,1159.98127 2612.59211,818.756535 C2575.92921,493.746228 2446.45434,269.438596 2248.08018,187.356053 C2191.96538,164.373747 2131.8504,152.746503 2071.21298,153.146974 L2071.21298,153.146974 Z M2277.57408,2771.36842 C1960.64693,2771.36842 1609.46259,2696.88789 1267.17934,2555.14395 C848.250439,2381.59662 490.9075,2126.92904 261.01864,1838.67785 C20.9296053,1537.38776 -53.7433772,1232.44101 50.6640789,980.515921 C155.071535,728.590833 423.403509,565.724825 806.05443,522.470307 C1172.58715,481.044123 1605.18044,553.792544 2024.15746,727.339868 C2443.13447,900.887193 2800.71798,1155.16987 3030.65496,1443.42105 C3270.74399,1744.71114 3345.41697,2049.65789 3241.00952,2301.58298 C3136.60206,2553.50807 2868.27009,2716.37408 2485.61917,2759.6286 C2416.54613,2767.44379 2347.08783,2771.36327 2277.57408,2771.36842 L2277.57408,2771.36842 Z M1015.20614,663.973684 C951.213542,663.859236 887.265179,667.344992 823.664167,674.41443 C498.557632,711.077325 274.25,840.552193 192.167456,1038.92636 C110.084912,1237.30053 177.011535,1487.39728 380.822588,1743.21961 C594.833816,2011.79215 930.477325,2249.90851 1325.87846,2413.68868 C1721.27961,2577.46886 2126.97715,2646.27193 2468.25,2607.7807 C2793.26031,2571.02158 3017.47171,2441.54671 3099.65048,2243.17254 C3181.82925,2044.79838 3114.8064,1794.65351 2910.89912,1538.97553 C2696.98412,1270.21053 2361.34061,1032.28662 1965.93947,868.506447 C1642.18013,734.412632 1311.5886,663.973684 1015.20614,663.973684 Z" id="Shape"></path>
        </g>
    </g>
</svg>